<mxfile host="Electron" agent="Mozilla/5.0 (Macintosh; Intel Mac OS X 10_15_7) AppleWebKit/537.36 (KHTML, like Gecko) draw.io/26.0.4 Chrome/128.0.6613.186 Electron/32.2.5 Safari/537.36" version="26.0.4">
  <diagram name="Seite-1" id="RnFvuNbb5QrFyOZaGbhw">
    <mxGraphModel dx="1122" dy="793" grid="1" gridSize="10" guides="1" tooltips="1" connect="1" arrows="1" fold="1" page="1" pageScale="1" pageWidth="827" pageHeight="1169" math="0" shadow="0">
      <root>
        <mxCell id="0" />
        <mxCell id="1" parent="0" />
        <mxCell id="TGfyg97XlzUn6j-Md9T5-118" value="" style="rounded=0;whiteSpace=wrap;html=1;fillColor=#CCCCCC;" vertex="1" parent="1">
          <mxGeometry x="40" y="587" width="666" height="70" as="geometry" />
        </mxCell>
        <mxCell id="TGfyg97XlzUn6j-Md9T5-116" value="" style="rounded=0;whiteSpace=wrap;html=1;fillColor=#E6E6E6;" vertex="1" parent="1">
          <mxGeometry x="40" y="377" width="666" height="210" as="geometry" />
        </mxCell>
        <mxCell id="TGfyg97XlzUn6j-Md9T5-112" value="dpt = 2&lt;div&gt;tpn = 2&lt;/div&gt;" style="rounded=0;whiteSpace=wrap;html=1;fillColor=#CCCCCC;" vertex="1" parent="1">
          <mxGeometry x="330" y="80" width="390" height="42.5" as="geometry" />
        </mxCell>
        <mxCell id="TGfyg97XlzUn6j-Md9T5-113" value="" style="rounded=0;whiteSpace=wrap;html=1;fillColor=#E6E6E6;" vertex="1" parent="1">
          <mxGeometry x="330" y="122.5" width="390" height="120" as="geometry" />
        </mxCell>
        <mxCell id="TGfyg97XlzUn6j-Md9T5-114" value="" style="rounded=0;whiteSpace=wrap;html=1;fillColor=#CCCCCC;" vertex="1" parent="1">
          <mxGeometry x="330" y="242.5" width="390" height="70" as="geometry" />
        </mxCell>
        <mxCell id="TGfyg97XlzUn6j-Md9T5-110" value="" style="rounded=0;whiteSpace=wrap;html=1;fillColor=#E6E6E6;" vertex="1" parent="1">
          <mxGeometry x="19" y="122.5" width="280" height="120" as="geometry" />
        </mxCell>
        <mxCell id="TGfyg97XlzUn6j-Md9T5-109" value="" style="rounded=0;whiteSpace=wrap;html=1;fillColor=#CCCCCC;" vertex="1" parent="1">
          <mxGeometry x="19" y="242.5" width="280" height="70" as="geometry" />
        </mxCell>
        <mxCell id="TGfyg97XlzUn6j-Md9T5-50" value="" style="rounded=1;whiteSpace=wrap;html=1;fontColor=#FFFFFF;fillColor=#FFFFCC;" vertex="1" parent="1">
          <mxGeometry x="664" y="135" width="50" height="95" as="geometry" />
        </mxCell>
        <mxCell id="TGfyg97XlzUn6j-Md9T5-49" value="" style="rounded=1;whiteSpace=wrap;html=1;fontColor=#FFFFFF;fillColor=#FFFFCC;" vertex="1" parent="1">
          <mxGeometry x="609" y="135" width="50" height="95" as="geometry" />
        </mxCell>
        <mxCell id="TGfyg97XlzUn6j-Md9T5-48" value="" style="rounded=1;whiteSpace=wrap;html=1;fontColor=#FFFFFF;fillColor=#FFFFCC;" vertex="1" parent="1">
          <mxGeometry x="554" y="135" width="50" height="95" as="geometry" />
        </mxCell>
        <mxCell id="TGfyg97XlzUn6j-Md9T5-47" value="" style="rounded=1;whiteSpace=wrap;html=1;fontColor=#FFFFFF;fillColor=#FFFFCC;" vertex="1" parent="1">
          <mxGeometry x="444" y="135" width="50" height="95" as="geometry" />
        </mxCell>
        <mxCell id="TGfyg97XlzUn6j-Md9T5-46" value="" style="rounded=1;whiteSpace=wrap;html=1;fontColor=#FFFFFF;fillColor=#FFFFCC;" vertex="1" parent="1">
          <mxGeometry x="499" y="135" width="50" height="95" as="geometry" />
        </mxCell>
        <mxCell id="TGfyg97XlzUn6j-Md9T5-45" value="" style="rounded=1;whiteSpace=wrap;html=1;fontColor=#FFFFFF;fillColor=#FFFFCC;" vertex="1" parent="1">
          <mxGeometry x="389" y="135" width="50" height="95" as="geometry" />
        </mxCell>
        <mxCell id="TGfyg97XlzUn6j-Md9T5-44" value="" style="rounded=1;whiteSpace=wrap;html=1;fontColor=#FFFFFF;fillColor=#FFFFCC;" vertex="1" parent="1">
          <mxGeometry x="334" y="135" width="50" height="95" as="geometry" />
        </mxCell>
        <mxCell id="TGfyg97XlzUn6j-Md9T5-43" value="" style="rounded=1;whiteSpace=wrap;html=1;fontColor=#FFFFFF;fillColor=#FFFFCC;" vertex="1" parent="1">
          <mxGeometry x="244" y="135" width="50" height="95" as="geometry" />
        </mxCell>
        <mxCell id="TGfyg97XlzUn6j-Md9T5-42" value="" style="rounded=1;whiteSpace=wrap;html=1;fontColor=#FFFFFF;fillColor=#FFFFCC;" vertex="1" parent="1">
          <mxGeometry x="189" y="135" width="50" height="95" as="geometry" />
        </mxCell>
        <mxCell id="TGfyg97XlzUn6j-Md9T5-41" value="" style="rounded=1;whiteSpace=wrap;html=1;fontColor=#FFFFFF;fillColor=#FFFFCC;" vertex="1" parent="1">
          <mxGeometry x="134" y="135" width="50" height="95" as="geometry" />
        </mxCell>
        <mxCell id="TGfyg97XlzUn6j-Md9T5-40" value="" style="rounded=1;whiteSpace=wrap;html=1;fontColor=#FFFFFF;fillColor=#FFFFCC;" vertex="1" parent="1">
          <mxGeometry x="79" y="135" width="50" height="95" as="geometry" />
        </mxCell>
        <mxCell id="TGfyg97XlzUn6j-Md9T5-38" value="" style="rounded=1;whiteSpace=wrap;html=1;fontColor=#FFFFFF;fillColor=#FFFFCC;" vertex="1" parent="1">
          <mxGeometry x="24" y="135" width="50" height="95" as="geometry" />
        </mxCell>
        <mxCell id="TGfyg97XlzUn6j-Md9T5-2" value="9" style="rounded=1;whiteSpace=wrap;html=1;fillColor=light-dark(#499101, #ededed);fontColor=#FFFFFF;" vertex="1" parent="1">
          <mxGeometry x="29" y="257.5" width="40" height="40" as="geometry" />
        </mxCell>
        <mxCell id="TGfyg97XlzUn6j-Md9T5-3" value="+" style="rounded=1;whiteSpace=wrap;html=1;fillColor=light-dark(#054c99, #ededed);fontColor=#FFFFFF;" vertex="1" parent="1">
          <mxGeometry x="84" y="257.5" width="40" height="40" as="geometry" />
        </mxCell>
        <mxCell id="TGfyg97XlzUn6j-Md9T5-4" value="32" style="rounded=1;whiteSpace=wrap;html=1;fillColor=light-dark(#499101, #ededed);fontColor=#FFFFFF;" vertex="1" parent="1">
          <mxGeometry x="139" y="257.5" width="40" height="40" as="geometry" />
        </mxCell>
        <mxCell id="TGfyg97XlzUn6j-Md9T5-5" value="=" style="rounded=1;whiteSpace=wrap;html=1;fillColor=light-dark(#054c99, #ededed);fontColor=#FFFFFF;" vertex="1" parent="1">
          <mxGeometry x="194" y="257.5" width="40" height="40" as="geometry" />
        </mxCell>
        <mxCell id="TGfyg97XlzUn6j-Md9T5-6" value="41" style="rounded=1;whiteSpace=wrap;html=1;fillColor=light-dark(#499101, #ededed);fontColor=#FFFFFF;" vertex="1" parent="1">
          <mxGeometry x="249" y="257.5" width="40" height="40" as="geometry" />
        </mxCell>
        <mxCell id="TGfyg97XlzUn6j-Md9T5-7" value="9" style="rounded=1;whiteSpace=wrap;html=1;fillColor=light-dark(#499101, #ededed);fontColor=#FFFFFF;" vertex="1" parent="1">
          <mxGeometry x="29" y="185" width="40" height="40" as="geometry" />
        </mxCell>
        <mxCell id="TGfyg97XlzUn6j-Md9T5-8" value="+" style="rounded=1;whiteSpace=wrap;html=1;fillColor=light-dark(#054c99, #ededed);fontColor=#FFFFFF;" vertex="1" parent="1">
          <mxGeometry x="84" y="185" width="40" height="40" as="geometry" />
        </mxCell>
        <mxCell id="TGfyg97XlzUn6j-Md9T5-9" value="2" style="rounded=1;whiteSpace=wrap;html=1;fillColor=light-dark(#499101, #ededed);fontColor=#FFFFFF;" vertex="1" parent="1">
          <mxGeometry x="139" y="185" width="40" height="40" as="geometry" />
        </mxCell>
        <mxCell id="TGfyg97XlzUn6j-Md9T5-10" value="=" style="rounded=1;whiteSpace=wrap;html=1;fillColor=light-dark(#054c99, #ededed);fontColor=#FFFFFF;" vertex="1" parent="1">
          <mxGeometry x="194" y="185" width="40" height="40" as="geometry" />
        </mxCell>
        <mxCell id="TGfyg97XlzUn6j-Md9T5-11" value="1" style="rounded=1;whiteSpace=wrap;html=1;fillColor=light-dark(#499101, #ededed);fontColor=#FFFFFF;" vertex="1" parent="1">
          <mxGeometry x="249" y="185" width="40" height="40" as="geometry" />
        </mxCell>
        <mxCell id="TGfyg97XlzUn6j-Md9T5-12" value="&amp;lt;pad&amp;gt;" style="rounded=1;whiteSpace=wrap;html=1;fillColor=light-dark(#666666, #ededed);fontColor=#FFFFFF;" vertex="1" parent="1">
          <mxGeometry x="29" y="140" width="40" height="40" as="geometry" />
        </mxCell>
        <mxCell id="TGfyg97XlzUn6j-Md9T5-13" value="&amp;lt;pad&amp;gt;" style="rounded=1;whiteSpace=wrap;html=1;fillColor=light-dark(#666666, #ededed);fontColor=#FFFFFF;" vertex="1" parent="1">
          <mxGeometry x="84" y="140" width="40" height="40" as="geometry" />
        </mxCell>
        <mxCell id="TGfyg97XlzUn6j-Md9T5-14" value="3" style="rounded=1;whiteSpace=wrap;html=1;fillColor=light-dark(#499101, #ededed);fontColor=#FFFFFF;" vertex="1" parent="1">
          <mxGeometry x="139" y="140" width="40" height="40" as="geometry" />
        </mxCell>
        <mxCell id="TGfyg97XlzUn6j-Md9T5-15" value="&amp;lt;pad&amp;gt;" style="rounded=1;whiteSpace=wrap;html=1;fillColor=light-dark(#666666, #ededed);fontColor=#FFFFFF;" vertex="1" parent="1">
          <mxGeometry x="194" y="140" width="40" height="40" as="geometry" />
        </mxCell>
        <mxCell id="TGfyg97XlzUn6j-Md9T5-16" value="4" style="rounded=1;whiteSpace=wrap;html=1;fillColor=light-dark(#499101, #ededed);fontColor=#FFFFFF;" vertex="1" parent="1">
          <mxGeometry x="249" y="140" width="40" height="40" as="geometry" />
        </mxCell>
        <mxCell id="TGfyg97XlzUn6j-Md9T5-17" value="7" style="rounded=1;whiteSpace=wrap;html=1;fillColor=light-dark(#499101, #ededed);fontColor=#FFFFFF;" vertex="1" parent="1">
          <mxGeometry x="339" y="257.5" width="40" height="40" as="geometry" />
        </mxCell>
        <mxCell id="TGfyg97XlzUn6j-Md9T5-18" value="+" style="rounded=1;whiteSpace=wrap;html=1;fillColor=light-dark(#054c99, #ededed);fontColor=#FFFFFF;" vertex="1" parent="1">
          <mxGeometry x="394" y="257.5" width="40" height="40" as="geometry" />
        </mxCell>
        <mxCell id="TGfyg97XlzUn6j-Md9T5-19" value="99" style="rounded=1;whiteSpace=wrap;html=1;fillColor=light-dark(#499101, #ededed);fontColor=#FFFFFF;" vertex="1" parent="1">
          <mxGeometry x="449" y="257.5" width="40" height="40" as="geometry" />
        </mxCell>
        <mxCell id="TGfyg97XlzUn6j-Md9T5-20" value="8" style="rounded=1;whiteSpace=wrap;html=1;fillColor=light-dark(#499101, #ededed);fontColor=#FFFFFF;" vertex="1" parent="1">
          <mxGeometry x="504" y="257.5" width="40" height="40" as="geometry" />
        </mxCell>
        <mxCell id="TGfyg97XlzUn6j-Md9T5-21" value="=" style="rounded=1;whiteSpace=wrap;html=1;fillColor=light-dark(#054c99, #ededed);fontColor=#FFFFFF;" vertex="1" parent="1">
          <mxGeometry x="559" y="257.5" width="40" height="40" as="geometry" />
        </mxCell>
        <mxCell id="TGfyg97XlzUn6j-Md9T5-22" value="6" style="rounded=1;whiteSpace=wrap;html=1;fillColor=light-dark(#499101, #ededed);fontColor=#FFFFFF;" vertex="1" parent="1">
          <mxGeometry x="339" y="185" width="40" height="40" as="geometry" />
        </mxCell>
        <mxCell id="TGfyg97XlzUn6j-Md9T5-23" value="+" style="rounded=1;whiteSpace=wrap;html=1;fillColor=light-dark(#054c99, #ededed);fontColor=#FFFFFF;" vertex="1" parent="1">
          <mxGeometry x="394" y="185" width="40" height="40" as="geometry" />
        </mxCell>
        <mxCell id="TGfyg97XlzUn6j-Md9T5-24" value="9" style="rounded=1;whiteSpace=wrap;html=1;fillColor=light-dark(#499101, #ededed);fontColor=#FFFFFF;" vertex="1" parent="1">
          <mxGeometry x="449" y="185" width="40" height="40" as="geometry" />
        </mxCell>
        <mxCell id="TGfyg97XlzUn6j-Md9T5-25" value="8" style="rounded=1;whiteSpace=wrap;html=1;fillColor=light-dark(#499101, #ededed);fontColor=#FFFFFF;" vertex="1" parent="1">
          <mxGeometry x="504" y="185" width="40" height="40" as="geometry" />
        </mxCell>
        <mxCell id="TGfyg97XlzUn6j-Md9T5-26" value="=" style="rounded=1;whiteSpace=wrap;html=1;fillColor=light-dark(#054c99, #ededed);fontColor=#FFFFFF;" vertex="1" parent="1">
          <mxGeometry x="559" y="185" width="40" height="40" as="geometry" />
        </mxCell>
        <mxCell id="TGfyg97XlzUn6j-Md9T5-27" value="&amp;lt;pad&amp;gt;" style="rounded=1;whiteSpace=wrap;html=1;fillColor=light-dark(#666666, #ededed);fontColor=#FFFFFF;" vertex="1" parent="1">
          <mxGeometry x="339" y="140" width="40" height="40" as="geometry" />
        </mxCell>
        <mxCell id="TGfyg97XlzUn6j-Md9T5-28" value="&amp;lt;pad&amp;gt;" style="rounded=1;whiteSpace=wrap;html=1;fillColor=light-dark(#666666, #ededed);fontColor=#FFFFFF;" vertex="1" parent="1">
          <mxGeometry x="394" y="140" width="40" height="40" as="geometry" />
        </mxCell>
        <mxCell id="TGfyg97XlzUn6j-Md9T5-29" value="9" style="rounded=1;whiteSpace=wrap;html=1;fillColor=light-dark(#499101, #ededed);fontColor=#FFFFFF;" vertex="1" parent="1">
          <mxGeometry x="449" y="140" width="40" height="40" as="geometry" />
        </mxCell>
        <mxCell id="TGfyg97XlzUn6j-Md9T5-30" value="&amp;lt;pad&amp;gt;" style="rounded=1;whiteSpace=wrap;html=1;fillColor=light-dark(#666666, #ededed);fontColor=#FFFFFF;" vertex="1" parent="1">
          <mxGeometry x="504" y="140" width="40" height="40" as="geometry" />
        </mxCell>
        <mxCell id="TGfyg97XlzUn6j-Md9T5-31" value="&amp;lt;pad&amp;gt;" style="rounded=1;whiteSpace=wrap;html=1;fillColor=light-dark(#666666, #ededed);fontColor=#FFFFFF;" vertex="1" parent="1">
          <mxGeometry x="559" y="140" width="40" height="40" as="geometry" />
        </mxCell>
        <mxCell id="TGfyg97XlzUn6j-Md9T5-32" value="10" style="rounded=1;whiteSpace=wrap;html=1;fillColor=light-dark(#499101, #ededed);fontColor=#FFFFFF;" vertex="1" parent="1">
          <mxGeometry x="614" y="257.5" width="40" height="40" as="geometry" />
        </mxCell>
        <mxCell id="TGfyg97XlzUn6j-Md9T5-33" value="15" style="rounded=1;whiteSpace=wrap;html=1;fillColor=light-dark(#499101, #ededed);fontColor=#FFFFFF;" vertex="1" parent="1">
          <mxGeometry x="669" y="257.5" width="40" height="40" as="geometry" />
        </mxCell>
        <mxCell id="TGfyg97XlzUn6j-Md9T5-34" value="0" style="rounded=1;whiteSpace=wrap;html=1;fillColor=light-dark(#499101, #ededed);fontColor=#FFFFFF;" vertex="1" parent="1">
          <mxGeometry x="614" y="185" width="40" height="40" as="geometry" />
        </mxCell>
        <mxCell id="TGfyg97XlzUn6j-Md9T5-35" value="5" style="rounded=1;whiteSpace=wrap;html=1;fillColor=light-dark(#499101, #ededed);fontColor=#FFFFFF;" vertex="1" parent="1">
          <mxGeometry x="669" y="185" width="40" height="40" as="geometry" />
        </mxCell>
        <mxCell id="TGfyg97XlzUn6j-Md9T5-36" value="1" style="rounded=1;whiteSpace=wrap;html=1;fillColor=light-dark(#4d9901, #ededed);fontColor=#FFFFFF;" vertex="1" parent="1">
          <mxGeometry x="614" y="140" width="40" height="40" as="geometry" />
        </mxCell>
        <mxCell id="TGfyg97XlzUn6j-Md9T5-37" value="1" style="rounded=1;whiteSpace=wrap;html=1;fillColor=light-dark(#499101, #ededed);fontColor=#FFFFFF;" vertex="1" parent="1">
          <mxGeometry x="669" y="140" width="40" height="40" as="geometry" />
        </mxCell>
        <mxCell id="TGfyg97XlzUn6j-Md9T5-51" value="" style="rounded=1;whiteSpace=wrap;html=1;fontColor=#FFFFFF;fillColor=#FFFFCC;" vertex="1" parent="1">
          <mxGeometry x="540" y="390" width="50" height="185" as="geometry" />
        </mxCell>
        <mxCell id="TGfyg97XlzUn6j-Md9T5-52" value="" style="rounded=1;whiteSpace=wrap;html=1;fontColor=#FFFFFF;fillColor=#FFFFCC;" vertex="1" parent="1">
          <mxGeometry x="485" y="390" width="50" height="185" as="geometry" />
        </mxCell>
        <mxCell id="TGfyg97XlzUn6j-Md9T5-53" value="" style="rounded=1;whiteSpace=wrap;html=1;fontColor=#FFFFFF;fillColor=#FFFFCC;" vertex="1" parent="1">
          <mxGeometry x="430" y="390" width="50" height="185" as="geometry" />
        </mxCell>
        <mxCell id="TGfyg97XlzUn6j-Md9T5-54" value="" style="rounded=1;whiteSpace=wrap;html=1;fontColor=#FFFFFF;fillColor=#FFFFCC;" vertex="1" parent="1">
          <mxGeometry x="265" y="390" width="50" height="185" as="geometry" />
        </mxCell>
        <mxCell id="TGfyg97XlzUn6j-Md9T5-55" value="" style="rounded=1;whiteSpace=wrap;html=1;fontColor=#FFFFFF;fillColor=#FFFFCC;" vertex="1" parent="1">
          <mxGeometry x="320" y="390" width="50" height="185" as="geometry" />
        </mxCell>
        <mxCell id="TGfyg97XlzUn6j-Md9T5-56" value="" style="rounded=1;whiteSpace=wrap;html=1;fontColor=#FFFFFF;fillColor=#FFFFCC;" vertex="1" parent="1">
          <mxGeometry x="210" y="390" width="50" height="185" as="geometry" />
        </mxCell>
        <mxCell id="TGfyg97XlzUn6j-Md9T5-57" value="" style="rounded=1;whiteSpace=wrap;html=1;fontColor=#FFFFFF;fillColor=#FFFFCC;" vertex="1" parent="1">
          <mxGeometry x="45" y="390" width="50" height="185" as="geometry" />
        </mxCell>
        <mxCell id="TGfyg97XlzUn6j-Md9T5-58" value="1423" style="rounded=1;whiteSpace=wrap;html=1;fillColor=light-dark(#499101, #ededed);fontColor=#FFFFFF;" vertex="1" parent="1">
          <mxGeometry x="50" y="602" width="40" height="40" as="geometry" />
        </mxCell>
        <mxCell id="TGfyg97XlzUn6j-Md9T5-59" value="+" style="rounded=1;whiteSpace=wrap;html=1;fillColor=light-dark(#054c99, #ededed);fontColor=#FFFFFF;" vertex="1" parent="1">
          <mxGeometry x="215" y="602" width="40" height="40" as="geometry" />
        </mxCell>
        <mxCell id="TGfyg97XlzUn6j-Md9T5-60" value="9994" style="rounded=1;whiteSpace=wrap;html=1;fillColor=light-dark(#499101, #ededed);fontColor=#FFFFFF;" vertex="1" parent="1">
          <mxGeometry x="270" y="602" width="40" height="40" as="geometry" />
        </mxCell>
        <mxCell id="TGfyg97XlzUn6j-Md9T5-61" value="8883" style="rounded=1;whiteSpace=wrap;html=1;fillColor=light-dark(#499101, #ededed);fontColor=#FFFFFF;" vertex="1" parent="1">
          <mxGeometry x="325" y="602" width="40" height="40" as="geometry" />
        </mxCell>
        <mxCell id="TGfyg97XlzUn6j-Md9T5-62" value="=" style="rounded=1;whiteSpace=wrap;html=1;fillColor=light-dark(#054c99, #ededed);fontColor=#FFFFFF;" vertex="1" parent="1">
          <mxGeometry x="435" y="602" width="40" height="40" as="geometry" />
        </mxCell>
        <mxCell id="TGfyg97XlzUn6j-Md9T5-63" value="3" style="rounded=1;whiteSpace=wrap;html=1;fillColor=light-dark(#499101, #ededed);fontColor=#FFFFFF;" vertex="1" parent="1">
          <mxGeometry x="50" y="530" width="40" height="40" as="geometry" />
        </mxCell>
        <mxCell id="TGfyg97XlzUn6j-Md9T5-64" value="+" style="rounded=1;whiteSpace=wrap;html=1;fillColor=light-dark(#054c99, #ededed);fontColor=#FFFFFF;" vertex="1" parent="1">
          <mxGeometry x="215" y="530" width="40" height="40" as="geometry" />
        </mxCell>
        <mxCell id="TGfyg97XlzUn6j-Md9T5-65" value="4" style="rounded=1;whiteSpace=wrap;html=1;fillColor=light-dark(#499101, #ededed);fontColor=#FFFFFF;" vertex="1" parent="1">
          <mxGeometry x="270" y="530" width="40" height="40" as="geometry" />
        </mxCell>
        <mxCell id="TGfyg97XlzUn6j-Md9T5-66" value="3" style="rounded=1;whiteSpace=wrap;html=1;fillColor=light-dark(#499101, #ededed);fontColor=#FFFFFF;" vertex="1" parent="1">
          <mxGeometry x="325" y="530" width="40" height="40" as="geometry" />
        </mxCell>
        <mxCell id="TGfyg97XlzUn6j-Md9T5-67" value="=" style="rounded=1;whiteSpace=wrap;html=1;fillColor=light-dark(#054c99, #ededed);fontColor=#FFFFFF;" vertex="1" parent="1">
          <mxGeometry x="435" y="530" width="40" height="40" as="geometry" />
        </mxCell>
        <mxCell id="TGfyg97XlzUn6j-Md9T5-69" value="&amp;lt;pad&amp;gt;" style="rounded=1;whiteSpace=wrap;html=1;fillColor=light-dark(#666666, #ededed);fontColor=#FFFFFF;" vertex="1" parent="1">
          <mxGeometry x="215" y="485" width="40" height="40" as="geometry" />
        </mxCell>
        <mxCell id="TGfyg97XlzUn6j-Md9T5-70" value="9" style="rounded=1;whiteSpace=wrap;html=1;fillColor=light-dark(#499101, #ededed);fontColor=#FFFFFF;" vertex="1" parent="1">
          <mxGeometry x="270" y="485" width="40" height="40" as="geometry" />
        </mxCell>
        <mxCell id="TGfyg97XlzUn6j-Md9T5-72" value="&amp;lt;pad&amp;gt;" style="rounded=1;whiteSpace=wrap;html=1;fillColor=light-dark(#666666, #ededed);fontColor=#FFFFFF;" vertex="1" parent="1">
          <mxGeometry x="435" y="485" width="40" height="40" as="geometry" />
        </mxCell>
        <mxCell id="TGfyg97XlzUn6j-Md9T5-74" value="8797" style="rounded=1;whiteSpace=wrap;html=1;fillColor=light-dark(#499101, #ededed);fontColor=#FFFFFF;" vertex="1" parent="1">
          <mxGeometry x="545" y="602" width="40" height="40" as="geometry" />
        </mxCell>
        <mxCell id="TGfyg97XlzUn6j-Md9T5-75" value="1" style="rounded=1;whiteSpace=wrap;html=1;fillColor=light-dark(#499101, #ededed);fontColor=#FFFFFF;" vertex="1" parent="1">
          <mxGeometry x="490" y="530" width="40" height="40" as="geometry" />
        </mxCell>
        <mxCell id="TGfyg97XlzUn6j-Md9T5-76" value="7" style="rounded=1;whiteSpace=wrap;html=1;fillColor=light-dark(#499101, #ededed);fontColor=#FFFFFF;" vertex="1" parent="1">
          <mxGeometry x="545" y="530" width="40" height="40" as="geometry" />
        </mxCell>
        <mxCell id="TGfyg97XlzUn6j-Md9T5-77" value="4" style="rounded=1;whiteSpace=wrap;html=1;fillColor=light-dark(#4d9901, #ededed);fontColor=#FFFFFF;" vertex="1" parent="1">
          <mxGeometry x="490" y="485" width="40" height="40" as="geometry" />
        </mxCell>
        <mxCell id="TGfyg97XlzUn6j-Md9T5-78" value="9" style="rounded=1;whiteSpace=wrap;html=1;fillColor=light-dark(#499101, #ededed);fontColor=#FFFFFF;" vertex="1" parent="1">
          <mxGeometry x="545" y="485" width="40" height="40" as="geometry" />
        </mxCell>
        <mxCell id="TGfyg97XlzUn6j-Md9T5-79" value="2" style="rounded=1;whiteSpace=wrap;html=1;fillColor=light-dark(#499101, #ededed);fontColor=#FFFFFF;" vertex="1" parent="1">
          <mxGeometry x="50" y="485" width="40" height="40" as="geometry" />
        </mxCell>
        <mxCell id="TGfyg97XlzUn6j-Md9T5-80" value="4" style="rounded=1;whiteSpace=wrap;html=1;fillColor=light-dark(#499101, #ededed);fontColor=#FFFFFF;" vertex="1" parent="1">
          <mxGeometry x="50" y="440" width="40" height="40" as="geometry" />
        </mxCell>
        <mxCell id="TGfyg97XlzUn6j-Md9T5-81" value="1" style="rounded=1;whiteSpace=wrap;html=1;fillColor=light-dark(#499101, #ededed);fontColor=#FFFFFF;" vertex="1" parent="1">
          <mxGeometry x="50" y="395" width="40" height="40" as="geometry" />
        </mxCell>
        <mxCell id="TGfyg97XlzUn6j-Md9T5-82" value="" style="rounded=1;whiteSpace=wrap;html=1;fontColor=#FFFFFF;fillColor=#FFFFCC;" vertex="1" parent="1">
          <mxGeometry x="100" y="390" width="50" height="185" as="geometry" />
        </mxCell>
        <mxCell id="TGfyg97XlzUn6j-Md9T5-83" value="9091" style="rounded=1;whiteSpace=wrap;html=1;fillColor=light-dark(#499101, #ededed);fontColor=#FFFFFF;" vertex="1" parent="1">
          <mxGeometry x="105" y="602" width="40" height="40" as="geometry" />
        </mxCell>
        <mxCell id="TGfyg97XlzUn6j-Md9T5-84" value="1" style="rounded=1;whiteSpace=wrap;html=1;fillColor=light-dark(#499101, #ededed);fontColor=#FFFFFF;" vertex="1" parent="1">
          <mxGeometry x="105" y="530" width="40" height="40" as="geometry" />
        </mxCell>
        <mxCell id="TGfyg97XlzUn6j-Md9T5-85" value="9" style="rounded=1;whiteSpace=wrap;html=1;fillColor=light-dark(#499101, #ededed);fontColor=#FFFFFF;" vertex="1" parent="1">
          <mxGeometry x="105" y="485" width="40" height="40" as="geometry" />
        </mxCell>
        <mxCell id="TGfyg97XlzUn6j-Md9T5-86" value="0" style="rounded=1;whiteSpace=wrap;html=1;fillColor=light-dark(#499101, #ededed);fontColor=#FFFFFF;" vertex="1" parent="1">
          <mxGeometry x="105" y="440" width="40" height="40" as="geometry" />
        </mxCell>
        <mxCell id="TGfyg97XlzUn6j-Md9T5-87" value="9" style="rounded=1;whiteSpace=wrap;html=1;fillColor=light-dark(#499101, #ededed);fontColor=#FFFFFF;" vertex="1" parent="1">
          <mxGeometry x="105" y="395" width="40" height="40" as="geometry" />
        </mxCell>
        <mxCell id="TGfyg97XlzUn6j-Md9T5-88" value="&amp;lt;pad&amp;gt;" style="rounded=1;whiteSpace=wrap;html=1;fillColor=light-dark(#666666, #ededed);fontColor=#FFFFFF;" vertex="1" parent="1">
          <mxGeometry x="215" y="440" width="40" height="40" as="geometry" />
        </mxCell>
        <mxCell id="TGfyg97XlzUn6j-Md9T5-89" value="&amp;lt;pad&amp;gt;" style="rounded=1;whiteSpace=wrap;html=1;fillColor=light-dark(#666666, #ededed);fontColor=#FFFFFF;" vertex="1" parent="1">
          <mxGeometry x="215" y="395" width="40" height="40" as="geometry" />
        </mxCell>
        <mxCell id="TGfyg97XlzUn6j-Md9T5-90" value="&amp;lt;pad&amp;gt;" style="rounded=1;whiteSpace=wrap;html=1;fillColor=light-dark(#666666, #ededed);fontColor=#FFFFFF;" vertex="1" parent="1">
          <mxGeometry x="435" y="440" width="40" height="40" as="geometry" />
        </mxCell>
        <mxCell id="TGfyg97XlzUn6j-Md9T5-91" value="&amp;lt;pad&amp;gt;" style="rounded=1;whiteSpace=wrap;html=1;fillColor=light-dark(#666666, #ededed);fontColor=#FFFFFF;" vertex="1" parent="1">
          <mxGeometry x="435" y="395" width="40" height="40" as="geometry" />
        </mxCell>
        <mxCell id="TGfyg97XlzUn6j-Md9T5-92" value="9" style="rounded=1;whiteSpace=wrap;html=1;fillColor=light-dark(#499101, #ededed);fontColor=#FFFFFF;" vertex="1" parent="1">
          <mxGeometry x="270" y="440" width="40" height="40" as="geometry" />
        </mxCell>
        <mxCell id="TGfyg97XlzUn6j-Md9T5-93" value="9" style="rounded=1;whiteSpace=wrap;html=1;fillColor=light-dark(#499101, #ededed);fontColor=#FFFFFF;" vertex="1" parent="1">
          <mxGeometry x="270" y="395" width="40" height="40" as="geometry" />
        </mxCell>
        <mxCell id="TGfyg97XlzUn6j-Md9T5-94" value="8" style="rounded=1;whiteSpace=wrap;html=1;fillColor=light-dark(#499101, #ededed);fontColor=#FFFFFF;" vertex="1" parent="1">
          <mxGeometry x="325" y="440" width="40" height="40" as="geometry" />
        </mxCell>
        <mxCell id="TGfyg97XlzUn6j-Md9T5-95" value="8" style="rounded=1;whiteSpace=wrap;html=1;fillColor=light-dark(#499101, #ededed);fontColor=#FFFFFF;" vertex="1" parent="1">
          <mxGeometry x="325" y="395" width="40" height="40" as="geometry" />
        </mxCell>
        <mxCell id="TGfyg97XlzUn6j-Md9T5-96" value="8" style="rounded=1;whiteSpace=wrap;html=1;fillColor=light-dark(#499101, #ededed);fontColor=#FFFFFF;" vertex="1" parent="1">
          <mxGeometry x="325" y="485" width="40" height="40" as="geometry" />
        </mxCell>
        <mxCell id="TGfyg97XlzUn6j-Md9T5-97" value="1141" style="rounded=1;whiteSpace=wrap;html=1;fillColor=light-dark(#499101, #ededed);fontColor=#FFFFFF;" vertex="1" parent="1">
          <mxGeometry x="490" y="602" width="40" height="40" as="geometry" />
        </mxCell>
        <mxCell id="TGfyg97XlzUn6j-Md9T5-105" value="1" style="rounded=1;whiteSpace=wrap;html=1;fillColor=light-dark(#499101, #ededed);fontColor=#FFFFFF;" vertex="1" parent="1">
          <mxGeometry x="490" y="440" width="40" height="40" as="geometry" />
        </mxCell>
        <mxCell id="TGfyg97XlzUn6j-Md9T5-106" value="7" style="rounded=1;whiteSpace=wrap;html=1;fillColor=light-dark(#499101, #ededed);fontColor=#FFFFFF;" vertex="1" parent="1">
          <mxGeometry x="545" y="440" width="40" height="40" as="geometry" />
        </mxCell>
        <mxCell id="TGfyg97XlzUn6j-Md9T5-107" value="1" style="rounded=1;whiteSpace=wrap;html=1;fillColor=light-dark(#4d9901, #ededed);fontColor=#FFFFFF;" vertex="1" parent="1">
          <mxGeometry x="490" y="395" width="40" height="40" as="geometry" />
        </mxCell>
        <mxCell id="TGfyg97XlzUn6j-Md9T5-108" value="8" style="rounded=1;whiteSpace=wrap;html=1;fillColor=light-dark(#499101, #ededed);fontColor=#FFFFFF;" vertex="1" parent="1">
          <mxGeometry x="545" y="395" width="40" height="40" as="geometry" />
        </mxCell>
        <mxCell id="TGfyg97XlzUn6j-Md9T5-111" value="dpt = 2&lt;div&gt;tpn = 1&lt;/div&gt;" style="rounded=0;whiteSpace=wrap;html=1;fillColor=#CCCCCC;" vertex="1" parent="1">
          <mxGeometry x="19" y="80" width="280" height="42.5" as="geometry" />
        </mxCell>
        <mxCell id="TGfyg97XlzUn6j-Md9T5-117" value="dpt = 4&lt;div&gt;tpn = 3&lt;/div&gt;" style="rounded=0;whiteSpace=wrap;html=1;fillColor=#CCCCCC;" vertex="1" parent="1">
          <mxGeometry x="40" y="334.5" width="666" height="42.5" as="geometry" />
        </mxCell>
        <mxCell id="TGfyg97XlzUn6j-Md9T5-119" value="" style="rounded=1;whiteSpace=wrap;html=1;fontColor=#FFFFFF;fillColor=#FFFFCC;" vertex="1" parent="1">
          <mxGeometry x="155" y="390" width="50" height="185" as="geometry" />
        </mxCell>
        <mxCell id="TGfyg97XlzUn6j-Md9T5-120" value="9993" style="rounded=1;whiteSpace=wrap;html=1;fillColor=light-dark(#499101, #ededed);fontColor=#FFFFFF;" vertex="1" parent="1">
          <mxGeometry x="160" y="602" width="40" height="40" as="geometry" />
        </mxCell>
        <mxCell id="TGfyg97XlzUn6j-Md9T5-121" value="3" style="rounded=1;whiteSpace=wrap;html=1;fillColor=light-dark(#499101, #ededed);fontColor=#FFFFFF;" vertex="1" parent="1">
          <mxGeometry x="160" y="530" width="40" height="40" as="geometry" />
        </mxCell>
        <mxCell id="TGfyg97XlzUn6j-Md9T5-122" value="9" style="rounded=1;whiteSpace=wrap;html=1;fillColor=light-dark(#499101, #ededed);fontColor=#FFFFFF;" vertex="1" parent="1">
          <mxGeometry x="160" y="485" width="40" height="40" as="geometry" />
        </mxCell>
        <mxCell id="TGfyg97XlzUn6j-Md9T5-123" value="9" style="rounded=1;whiteSpace=wrap;html=1;fillColor=light-dark(#499101, #ededed);fontColor=#FFFFFF;" vertex="1" parent="1">
          <mxGeometry x="160" y="440" width="40" height="40" as="geometry" />
        </mxCell>
        <mxCell id="TGfyg97XlzUn6j-Md9T5-124" value="9" style="rounded=1;whiteSpace=wrap;html=1;fillColor=light-dark(#499101, #ededed);fontColor=#FFFFFF;" vertex="1" parent="1">
          <mxGeometry x="160" y="395" width="40" height="40" as="geometry" />
        </mxCell>
        <mxCell id="TGfyg97XlzUn6j-Md9T5-125" value="" style="rounded=1;whiteSpace=wrap;html=1;fontColor=#FFFFFF;fillColor=#FFFFCC;" vertex="1" parent="1">
          <mxGeometry x="375" y="390" width="50" height="185" as="geometry" />
        </mxCell>
        <mxCell id="TGfyg97XlzUn6j-Md9T5-126" value="9897" style="rounded=1;whiteSpace=wrap;html=1;fillColor=light-dark(#499101, #ededed);fontColor=#FFFFFF;" vertex="1" parent="1">
          <mxGeometry x="380" y="602" width="40" height="40" as="geometry" />
        </mxCell>
        <mxCell id="TGfyg97XlzUn6j-Md9T5-127" value="7" style="rounded=1;whiteSpace=wrap;html=1;fillColor=light-dark(#499101, #ededed);fontColor=#FFFFFF;" vertex="1" parent="1">
          <mxGeometry x="380" y="530" width="40" height="40" as="geometry" />
        </mxCell>
        <mxCell id="TGfyg97XlzUn6j-Md9T5-128" value="8" style="rounded=1;whiteSpace=wrap;html=1;fillColor=light-dark(#499101, #ededed);fontColor=#FFFFFF;" vertex="1" parent="1">
          <mxGeometry x="380" y="440" width="40" height="40" as="geometry" />
        </mxCell>
        <mxCell id="TGfyg97XlzUn6j-Md9T5-129" value="9" style="rounded=1;whiteSpace=wrap;html=1;fillColor=light-dark(#499101, #ededed);fontColor=#FFFFFF;" vertex="1" parent="1">
          <mxGeometry x="380" y="395" width="40" height="40" as="geometry" />
        </mxCell>
        <mxCell id="TGfyg97XlzUn6j-Md9T5-130" value="9" style="rounded=1;whiteSpace=wrap;html=1;fillColor=light-dark(#499101, #ededed);fontColor=#FFFFFF;" vertex="1" parent="1">
          <mxGeometry x="380" y="485" width="40" height="40" as="geometry" />
        </mxCell>
        <mxCell id="TGfyg97XlzUn6j-Md9T5-132" value="0" style="rounded=1;whiteSpace=wrap;html=1;fillColor=light-dark(#499101, #ededed);fontColor=#FFFFFF;" vertex="1" parent="1">
          <mxGeometry x="655" y="602" width="40" height="40" as="geometry" />
        </mxCell>
        <mxCell id="TGfyg97XlzUn6j-Md9T5-133" value="" style="rounded=1;whiteSpace=wrap;html=1;fontColor=#FFFFFF;fillColor=#FFFFCC;" vertex="1" parent="1">
          <mxGeometry x="650" y="390" width="50" height="185" as="geometry" />
        </mxCell>
        <mxCell id="TGfyg97XlzUn6j-Md9T5-134" value="&amp;lt;pad&amp;gt;" style="rounded=1;whiteSpace=wrap;html=1;fillColor=light-dark(#666666, #ededed);fontColor=#FFFFFF;" vertex="1" parent="1">
          <mxGeometry x="655" y="485" width="40" height="40" as="geometry" />
        </mxCell>
        <mxCell id="TGfyg97XlzUn6j-Md9T5-135" value="&amp;lt;pad&amp;gt;" style="rounded=1;whiteSpace=wrap;html=1;fillColor=light-dark(#666666, #ededed);fontColor=#FFFFFF;" vertex="1" parent="1">
          <mxGeometry x="655" y="440" width="40" height="40" as="geometry" />
        </mxCell>
        <mxCell id="TGfyg97XlzUn6j-Md9T5-136" value="&amp;lt;pad&amp;gt;" style="rounded=1;whiteSpace=wrap;html=1;fillColor=light-dark(#666666, #ededed);fontColor=#FFFFFF;" vertex="1" parent="1">
          <mxGeometry x="655" y="395" width="40" height="40" as="geometry" />
        </mxCell>
        <mxCell id="TGfyg97XlzUn6j-Md9T5-137" value="0" style="rounded=1;whiteSpace=wrap;html=1;fillColor=light-dark(#499101, #ededed);fontColor=#FFFFFF;" vertex="1" parent="1">
          <mxGeometry x="655" y="530" width="40" height="40" as="geometry" />
        </mxCell>
        <mxCell id="TGfyg97XlzUn6j-Md9T5-138" value="" style="rounded=1;whiteSpace=wrap;html=1;fontColor=#FFFFFF;fillColor=#FFFFCC;" vertex="1" parent="1">
          <mxGeometry x="595" y="390" width="50" height="185" as="geometry" />
        </mxCell>
        <mxCell id="TGfyg97XlzUn6j-Md9T5-139" value="5989" style="rounded=1;whiteSpace=wrap;html=1;fillColor=light-dark(#499101, #ededed);fontColor=#FFFFFF;" vertex="1" parent="1">
          <mxGeometry x="600" y="602" width="40" height="40" as="geometry" />
        </mxCell>
        <mxCell id="TGfyg97XlzUn6j-Md9T5-140" value="9" style="rounded=1;whiteSpace=wrap;html=1;fillColor=light-dark(#499101, #ededed);fontColor=#FFFFFF;" vertex="1" parent="1">
          <mxGeometry x="600" y="530" width="40" height="40" as="geometry" />
        </mxCell>
        <mxCell id="TGfyg97XlzUn6j-Md9T5-141" value="8" style="rounded=1;whiteSpace=wrap;html=1;fillColor=light-dark(#499101, #ededed);fontColor=#FFFFFF;" vertex="1" parent="1">
          <mxGeometry x="600" y="485" width="40" height="40" as="geometry" />
        </mxCell>
        <mxCell id="TGfyg97XlzUn6j-Md9T5-142" value="9" style="rounded=1;whiteSpace=wrap;html=1;fillColor=light-dark(#499101, #ededed);fontColor=#FFFFFF;" vertex="1" parent="1">
          <mxGeometry x="600" y="440" width="40" height="40" as="geometry" />
        </mxCell>
        <mxCell id="TGfyg97XlzUn6j-Md9T5-143" value="5" style="rounded=1;whiteSpace=wrap;html=1;fillColor=light-dark(#499101, #ededed);fontColor=#FFFFFF;" vertex="1" parent="1">
          <mxGeometry x="600" y="395" width="40" height="40" as="geometry" />
        </mxCell>
      </root>
    </mxGraphModel>
  </diagram>
</mxfile>
